<?xml version="1.0" encoding="utf-8"?>
<!-- Generator: Adobe Illustrator 23.0.3, SVG Export Plug-In . SVG Version: 6.00 Build 0)  -->
<svg version="1.1" id="Layer_1" xmlns="http://www.w3.org/2000/svg" xmlns:xlink="http://www.w3.org/1999/xlink" x="0px" y="0px"
	 viewBox="0 0 1572 320" style="enable-background:new 0 0 1572 320;" xml:space="preserve">
<style type="text/css">
	.st0{fill:#134985;}
	.st1{fill:#F58946;}
	.st2{fill:#1068B2;}
	.st3{fill:#0E3267;}
	.st4{fill:#F05A28;}
	.st5{fill:#F26F21;}
</style>
<title>logo</title>
<path class="st0" d="M98.1,198.1h5.2l2.8,15.6H101l-0.3-2.1h-5.1l-0.9,2.1h-5L98.1,198.1z M97.2,208.4h3.2l-0.6-5.6L97.2,208.4z"/>
<path class="st0" d="M109.3,202.4h4.1l-0.3,1.8c1-1.3,2.6-2.1,4.2-2.1c1-0.1,1.9,0.2,2.7,0.8c0.7,0.7,1.1,1.7,1,2.7
	c0,0.5,0,0.9-0.1,1.4l-1.2,6.9h-4.5l1.1-6.1v-0.3V207c0-0.9-0.4-1.4-1.3-1.4c-0.5,0-1,0.2-1.4,0.5c-0.4,0.5-0.7,1.2-0.8,1.8l-1,5.8
	h-4.5L109.3,202.4z"/>
<path class="st0" d="M137,198.1l-2.8,15.6h-4l0.3-1.6h-0.1c-0.8,1.3-2.2,2-3.8,2c-1.1,0-2.2-0.3-3.1-1c-0.9-0.8-1.4-2.1-1.3-3.3
	c0-0.6,0.1-1.3,0.2-1.9c0.2-1.7,1-3.2,2.2-4.3c1-1,2.3-1.5,3.7-1.6c0.6,0,1.2,0.1,1.8,0.3c0.5,0.3,1,0.7,1.3,1.1l0.9-5.4L137,198.1z
	 M129.3,205.6c-1.3,0-2.1,1.2-2.4,3.5c0,1.2,0.5,1.8,1.5,1.8c0.8,0,1.4-0.4,1.8-1.1c0.4-0.7,0.7-1.5,0.7-2.3c0-0.5-0.1-1-0.4-1.4
	C130.2,205.7,129.8,205.5,129.3,205.6"/>
<path class="st0" d="M137.9,205.9c0.4-2.5,2.8-3.8,7.1-3.8c1.3-0.1,2.6,0.1,3.7,0.7c0.7,0.5,1.1,1.3,1.1,2.2c0,0.5,0,0.9-0.1,1.4
	l-1,5.6l-0.1,0.8c0,0.3,0.2,0.6,0.5,0.9v0.2h-4.7v-1.2c-1.3,1.1-3,1.6-4.7,1.6c-0.9,0-1.8-0.3-2.6-0.9c-0.6-0.4-0.9-1.1-0.8-1.8
	v-0.3l0.1-0.5c0.1-0.9,0.6-1.7,1.3-2.3c0.6-0.5,1.3-0.8,2-1l1.2-0.2l1.6-0.3c0.8,0,1.5-0.2,2.2-0.4c0.5-0.2,0.7-0.5,0.7-0.9
	c0-0.5-0.4-0.8-1.3-0.8c-0.8-0.1-1.5,0.4-1.8,1.1H137.9z M144.8,208.8c-0.5,0.2-1.1,0.4-1.6,0.5l-0.8,0.2c-0.3,0.1-0.5,0.2-0.8,0.3
	c-0.3,0.2-0.5,0.5-0.6,0.9c0,0.5,0.4,0.9,1.2,1c0.7,0,1.4-0.3,1.8-0.9C144.5,210.2,144.7,209.5,144.8,208.8"/>
<path class="st0" d="M152.7,202.4h4.1l-0.3,1.7c0.5-0.6,1.1-1.1,1.9-1.4c0.1-0.1,0.3-0.1,0.4-0.2c0.2-0.1,0.5-0.2,0.7-0.2
	c0.3-0.1,0.7-0.1,1-0.1c1.8,0,2.9,0.7,3.3,2.1c1.1-1.3,2.7-2.1,4.3-2.1c1-0.1,1.9,0.2,2.7,0.8c0.7,0.7,1,1.6,0.9,2.5
	c0,0.5,0,1.1-0.1,1.6l-1.2,6.8h-4.5l1-5.8c0.1-0.4,0.1-0.8,0.1-1.1c0-0.3-0.1-0.7-0.3-0.9c-0.3-0.2-0.6-0.3-1-0.3
	c-0.4,0-0.8,0.1-1.2,0.4c-0.5,0.5-0.8,1.2-0.8,1.9l-1,5.8h-4.5l1-5.9l0.1-1c0-0.8-0.4-1.2-1.2-1.2c-0.5,0-0.9,0.2-1.3,0.5
	c-0.4,0.5-0.7,1.1-0.8,1.8l-1,5.8h-4.5L152.7,202.4z"/>
<path class="st0" d="M174.1,205.9c0.4-2.5,2.8-3.8,7.1-3.8c1.3-0.1,2.6,0.1,3.7,0.7c0.7,0.5,1.1,1.3,1.1,2.2c0,0.5,0,0.9-0.1,1.4
	l-1,5.6l-0.1,0.8c0,0.3,0.2,0.6,0.5,0.9v0.2h-4.7v-1.2c-1.3,1.1-3,1.6-4.7,1.6c-0.9,0-1.8-0.3-2.6-0.9c-0.6-0.4-0.9-1.1-0.8-1.8
	v-0.3l0.1-0.5c0.1-0.9,0.6-1.7,1.3-2.3c0.6-0.5,1.3-0.8,2-1l1.2-0.2l1.6-0.3c0.8,0,1.5-0.2,2.2-0.4c0.5-0.2,0.7-0.5,0.7-0.9
	c0-0.5-0.4-0.8-1.3-0.8c-0.8-0.1-1.5,0.4-1.8,1.1L174.1,205.9z M181,208.8c-0.5,0.2-1.1,0.4-1.6,0.5l-0.8,0.2
	c-0.3,0.1-0.5,0.2-0.8,0.3c-0.3,0.2-0.5,0.5-0.6,0.9c0,0.5,0.4,0.9,1.2,1c0.7,0,1.4-0.3,1.8-0.9C180.6,210.2,180.9,209.5,181,208.8"
	/>
<path class="st0" d="M188.9,202.4h4.1l-0.3,1.8c1-1.3,2.6-2.1,4.2-2.1c1-0.1,1.9,0.2,2.7,0.8c0.7,0.7,1.1,1.7,1,2.7
	c0,0.5,0,0.9-0.1,1.4l-1.2,6.9h-4.5l1.1-6.1v-0.3V207c0-0.9-0.4-1.4-1.3-1.4c-0.5,0-1,0.2-1.4,0.5c-0.4,0.5-0.7,1.2-0.8,1.8l-1,5.8
	H187L188.9,202.4z"/>
<path class="st0" d="M109,249.5l1.3-7.7h16l-3.5,19.7h-7.4l0.1-3.5c-3.1,2.9-7.2,4.5-11.4,4.4c-4.6,0-8.1-1.3-10.7-3.9
	c-2.6-2.7-4-6.4-3.8-10.1l0.1-2.2l0.3-1.9c0.8-5.3,3.3-10.1,7.2-13.8c1.9-1.8,4.2-3.2,6.6-4.2c2.6-1,5.4-1.4,8.2-1.4
	c1.4,0,2.8,0.1,4.2,0.3c1.3,0.2,2.5,0.6,3.6,1.2c2.1,0.9,3.8,2.5,5,4.4c1.2,2.1,1.8,4.5,1.8,7v0.2h-11.1c-0.4-3-2.1-4.4-5.2-4.4
	c-5.1,0-8.1,4.5-9,13.5c0,4.4,2,6.6,6.1,6.6c1.4,0,2.7-0.4,3.9-1.2c1.2-0.7,2.2-1.7,2.8-3L109,249.5z"/>
<path class="st0" d="M136.4,225.7h17c2.5-0.1,5,0.3,7.4,1.1c1.8,0.5,3.3,1.6,4.4,3.1c1,1.6,1.6,3.4,1.5,5.3c0,1-0.1,2-0.3,3
	c-1.6,8-7.2,12-16.8,12h-6l-1.9,11.1h-11.6L136.4,225.7z M146.7,234l-1.5,8h5c1.4,0,2.7-0.5,3.7-1.4c1-0.8,1.6-2.1,1.6-3.4
	c0-2.1-1.8-3.1-5.4-3.1L146.7,234z"/>
<path class="st0" d="M189.5,236.1c0-2-1.4-3-4.4-3c-2.3,0-3.6,0.6-3.9,1.9c-0.1,0.8,0.2,1.5,0.8,2c0.9,0.6,1.9,1,3,1.3l3.8,0.9
	c2.8,0.5,5.4,1.7,7.7,3.3c1.7,1.3,2.7,3.4,2.7,5.6l-0.1,2.1c-0.6,4-3,7.4-6.5,9.3c-3.8,2-8,3-12.2,2.9c-4.3,0-7.8-1.1-10.4-3.3
	c-2.2-1.8-3.4-4.6-3.4-7.5v-1.2h11.2c-0.1,1.2,0.5,2.4,1.5,3c1,0.6,2.2,0.9,3.3,0.9c2.8,0,4.5-0.8,5-2.4v-0.6c0-0.7-0.5-1.4-1.2-1.6
	c-1.7-0.7-3.4-1.3-5.1-1.8c-3.1-0.6-6-1.7-8.6-3.3c-2-1.4-3.2-3.7-3-6.1l0.1-1.4l0.1-1.2c0.4-2.1,1.4-4,2.8-5.5
	c1.7-1.8,3.7-3.1,6-3.9c2.7-1,5.6-1.5,8.6-1.4c3.4-0.1,6.8,0.8,9.7,2.6c2.3,1.6,3.5,4.5,3.5,8.6L189.5,236.1z"/>
<polygon class="st1" points="230.1,48.9 198.1,164.4 223.7,160 "/>
<polygon class="st2" points="181.6,127.3 193.7,151.2 226.6,37.5 "/>
<polygon class="st3" points="181.6,127.3 181.6,127.3 193.7,151.2 133.4,151.9 "/>
<polygon class="st0" points="181.6,127.3 133.4,151.9 178.4,96.7 226.6,37.5 "/>
<polygon class="st4" points="223.7,160 241.7,216.8 198.1,164.4 "/>
<polygon class="st5" points="236.8,147 241.7,216.8 223.7,160 230.1,48.9 "/>
<polygon class="st4" points="237.1,224.4 271,282.5 252.2,238.2 "/>
<polygon class="st5" points="252.2,238.2 271,282.5 233.9,57.5 "/>
<polygon class="st3" points="80.7,176.8 169.3,166 113.8,164.3 "/>
<polygon class="st0" points="215.9,46.6 80.7,176.8 113.7,164.3 "/>
<rect x="379.1" y="104.5" class="st0" width="4" height="133"/>
<g>
	<g>
		<path class="st0" d="M501.6,184.3H481l-7.2,15.7h-19l35.5-76.7h24.1l11.9,76.7h-22.6L501.6,184.3z M500.2,168.4l-3-22.2L487,168.4
			H500.2z"/>
		<path class="st0" d="M541.7,143.2h19.8l-1.5,9.2c1.5-3.8,4-6.5,7.5-8.3c3.5-1.7,7.1-2.6,11-2.6c4.8,0,8.7,1.3,11.7,3.8
			c3,2.5,4.5,5.9,4.5,10.1c0,1.6-0.2,3.5-0.6,5.8l-6.5,38.8h-21.6l5.7-34.1c0.4-2.2,0.6-3.6,0.6-4.3c0-3.2-1.7-4.8-5-4.8
			c-4.5,0-7.3,3-8.3,9.1l-5.7,34.1h-21.1L541.7,143.2z"/>
		<path class="st0" d="M668.1,123.2l-12.8,76.7h-20.2l1.4-8.6c-4.6,6.8-10.3,10.3-16.9,10.3c-5.1,0-9.5-2-13.3-6.1
			c-3.7-4-5.6-9.8-5.6-17.4c0-9.3,2.6-17.8,7.7-25.3s11.7-11.3,19.7-11.3c6.9,0,11.5,2.7,13.9,8.1l4.4-26.5H668.1z M639.8,163.4
			c0.1-0.6,0.2-1.2,0.2-1.9c0-1.6-0.6-3-1.7-4.1c-1.1-1.1-2.5-1.7-4.1-1.7c-3.9,0-6.6,3-8.3,8.9c-1.7,5.9-2.6,10.9-2.6,14.8
			c0,5.2,2,7.8,6,7.8c4,0,6.6-2.6,7.9-7.7L639.8,163.4z"/>
		<path class="st0" d="M725.3,199.9h-22.2c-0.1-1.1-0.2-2-0.2-2.6c0-1.9,0.1-4.2,0.4-6.8c-4.5,7.1-10.7,10.7-18.6,10.7
			c-5.4,0-9.8-1.6-13.1-4.7c-3.3-3.1-5-7-5-11.7c0-3.5,0.9-6.7,2.7-9.6c1.8-2.9,4.3-5.2,7.6-6.9c3.3-1.7,6.7-2.9,10.1-3.4
			s10.2-1.3,20.2-2.2c0.5-1.4,0.7-2.5,0.7-3.3c0-3.1-2.2-4.7-6.5-4.7c-4.3,0-7.4,2.1-9.4,6.3l-18.5-3.8c4.7-10.5,15-15.8,30.9-15.8
			c8.1,0,14.4,1.4,19,4.2c4.6,2.8,6.9,6.9,6.9,12.3c0,2.4-1.3,11-4,25.8c-1,5.5-1.5,9.2-1.5,11C724.7,196.4,724.9,198.1,725.3,199.9
			z M705.3,173c-10.3,0.8-15.5,4.1-15.5,9.9c0,3.2,1.7,4.8,5,4.8c2.1,0,4.3-1,6.4-2.9C703.4,182.9,704.7,178.9,705.3,173z"/>
		<path class="st0" d="M744.9,143.2h19.3l-1.5,8.8c4.2-7,10-10.4,17.5-10.4c7.1,0,11.9,3.5,14.4,10.4c3.7-6.8,9.3-10.2,17-10.2
			c5,0,9,1.4,12,4.2c3,2.8,4.5,6.6,4.5,11.4c0,1.5-0.2,3.4-0.5,5.6l-6.2,36.9h-21.6l5.7-33.6c0.3-1.7,0.4-3.1,0.4-4
			c0-3.3-1.5-4.9-4.5-4.9c-1.8,0-3.4,0.7-4.6,2.1c-1.2,1.4-2.2,4-2.8,8l-5.5,32.5h-21l5.7-33.6c0.3-2.1,0.5-3.5,0.5-4.4
			c0-1.7-0.5-3-1.5-3.7c-1-0.7-2-1.1-3-1.1s-2.4,0.4-3.9,1.3s-2.7,3.5-3.4,7.9l-5.7,33.6h-20.8L744.9,143.2z"/>
		<path class="st0" d="M891.5,199.9h-22.2c-0.1-1.1-0.2-2-0.2-2.6c0-1.9,0.1-4.2,0.4-6.8c-4.5,7.1-10.7,10.7-18.6,10.7
			c-5.4,0-9.8-1.6-13.1-4.7c-3.3-3.1-5-7-5-11.7c0-3.5,0.9-6.7,2.7-9.6c1.8-2.9,4.3-5.2,7.6-6.9c3.3-1.7,6.7-2.9,10.1-3.4
			s10.2-1.3,20.2-2.2c0.5-1.4,0.7-2.5,0.7-3.3c0-3.1-2.2-4.7-6.5-4.7c-4.3,0-7.4,2.1-9.4,6.3l-18.5-3.8c4.7-10.5,15-15.8,30.9-15.8
			c8.1,0,14.4,1.4,19,4.2c4.6,2.8,6.9,6.9,6.9,12.3c0,2.4-1.3,11-4,25.8c-1,5.5-1.5,9.2-1.5,11C890.9,196.4,891.1,198.1,891.5,199.9
			z M871.5,173c-10.3,0.8-15.5,4.1-15.5,9.9c0,3.2,1.7,4.8,5,4.8c2.1,0,4.3-1,6.4-2.9C869.6,182.9,870.9,178.9,871.5,173z"/>
		<path class="st0" d="M911.1,143.2h19.8l-1.5,9.2c1.5-3.8,4-6.5,7.5-8.3c3.5-1.7,7.1-2.6,11-2.6c4.8,0,8.7,1.3,11.7,3.8
			c3,2.5,4.5,5.9,4.5,10.1c0,1.6-0.2,3.5-0.6,5.8l-6.5,38.8h-21.6l5.7-34.1c0.4-2.2,0.6-3.6,0.6-4.3c0-3.2-1.7-4.8-5-4.8
			c-4.5,0-7.3,3-8.3,9.1l-5.7,34.1h-21.1L911.1,143.2z"/>
	</g>
	<g>
		<path class="st0" d="M1041.6,140.7l-9.9,59.3h-22.3l9.9-59.3h-16.4l3-17.6h55.5l-2.9,17.6H1041.6z"/>
	</g>
	<g>
		<path class="st0" d="M1060.2,143.2h18.9l-2.3,13.7c3.9-10.2,10-15.4,18.1-15.4c0.6,0,1.5,0.1,2.6,0.3L1095,162
			c-1.9-0.1-3.2-0.2-3.9-0.2c-4.7,0-8.1,1.1-10.3,3.3c-2.2,2.2-3.8,6.1-4.7,11.6l-3.9,23.2h-21.6L1060.2,143.2z"/>
	</g>
	<g>
		<path class="st0" d="M1153.4,199.9h-22.2c-0.1-1.1-0.2-2-0.2-2.6c0-1.9,0.1-4.2,0.4-6.8c-4.5,7.1-10.7,10.7-18.6,10.7
			c-5.4,0-9.8-1.6-13.1-4.7c-3.3-3.1-5-7-5-11.7c0-3.5,0.9-6.7,2.7-9.6c1.8-2.9,4.3-5.2,7.6-6.9c3.3-1.7,6.7-2.9,10.1-3.4
			s10.2-1.3,20.2-2.2c0.5-1.4,0.7-2.5,0.7-3.3c0-3.1-2.2-4.7-6.5-4.7c-4.3,0-7.4,2.1-9.4,6.3l-18.5-3.8c4.7-10.5,15-15.8,30.9-15.8
			c8.1,0,14.4,1.4,19,4.2c4.6,2.8,6.9,6.9,6.9,12.3c0,2.4-1.3,11-4,25.8c-1,5.5-1.5,9.2-1.5,11
			C1152.9,196.4,1153,198.1,1153.4,199.9z M1133.4,173c-10.3,0.8-15.5,4.1-15.5,9.9c0,3.2,1.7,4.8,5,4.8c2.1,0,4.3-1,6.4-2.9
			C1131.5,182.9,1132.8,178.9,1133.4,173z"/>
	</g>
	<g>
		<path class="st0" d="M1202.2,177.9l17.1,4.2c-3.1,7.3-7.1,12.4-12.1,15.3s-10.1,4.2-15.4,4.2c-7.8,0-14.2-2.5-19.2-7.5
			c-5-5-7.4-11.3-7.4-19.1c0-8.9,2.9-16.7,8.8-23.6c5.9-6.8,13.6-10.2,23.3-10.2c7,0,12.9,2.1,17.8,6.3s7.3,9.6,7.3,16.3l-19.3,2.2
			c0-6.1-2.1-9.2-6.2-9.2c-3.6,0-6.1,2.5-7.6,7.5c-1.5,5-2.2,9.4-2.2,13.2c0,5.6,2.1,8.3,6.3,8.3
			C1197.4,185.9,1200.4,183.2,1202.2,177.9z"/>
	</g>
	<g>
		<path class="st0" d="M1293.7,143.2l-9.9,8.9c-5.5,4.9-9.3,8.5-11.5,10.7l13.7,37.1h-21.5l-7.8-24.3l-9.8,8.8l-2.6,15.4h-20
			l12.8-76.7h20l-7.1,42.4l4.1-4.1c1.2-1.3,2.3-2.4,3.1-3.1l16.7-15.2H1293.7z"/>
		<path class="st0" d="M1322.5,143.2l-9.5,56.7h-22l9.5-56.7H1322.5z M1326.1,121.5l-2.8,16.7h-22l2.8-16.7H1326.1z"/>
		<path class="st0" d="M1334.2,143.2h19.8l-1.5,9.2c1.5-3.8,4-6.5,7.5-8.3c3.5-1.7,7.1-2.6,11-2.6c4.8,0,8.7,1.3,11.7,3.8
			c3,2.5,4.5,5.9,4.5,10.1c0,1.6-0.2,3.5-0.6,5.8l-6.5,38.8h-21.6l5.7-34.1c0.4-2.2,0.6-3.6,0.6-4.3c0-3.2-1.7-4.8-5-4.8
			c-4.5,0-7.3,3-8.3,9.1l-5.7,34.1h-21.1L1334.2,143.2z"/>
		<path class="st0" d="M1457,127.1l-1.3,14.2c-2.2-0.3-3.9-0.4-5.1-0.4c-4.2,0-7,1.5-8.5,4.6c5.8,3.5,8.7,8,8.7,13.5
			c0,4.8-1.9,9.1-5.7,12.9c-3.8,3.7-10.7,5.6-20.8,5.6c-2.1,0-3.9-0.1-5.3-0.2c-2-0.2-3.4-0.3-4.3-0.3c-1.4,0-2.5,0.4-3.4,1.2
			s-1.3,1.7-1.3,2.8c0,0.9,0.3,1.6,0.9,2.2s1.3,0.9,2.1,1c0.8,0.1,4.2,0.2,10.1,0.4c6.5,0.2,10.7,0.5,12.7,0.7
			c1.9,0.2,4.1,1,6.4,2.2c2.3,1.2,4.1,3,5.5,5.2c1.3,2.2,2,4.7,2,7.5c0,5.3-2.4,10-7.1,14c-4.7,4-13.7,6-26.8,6
			c-19.9,0-29.8-4.6-29.8-13.7c0-4.8,3.4-8.4,10.1-11c-3.7-2.4-5.5-5.4-5.5-9c0-6.3,4.6-10.8,13.8-13.4c-5.3-3-7.9-7.2-7.9-12.6
			c0-5,2.2-9.3,6.5-12.9c4.3-3.6,11.6-5.4,21.9-5.4c3.1,0,6.1,0.3,8.8,0.8c1.6-10.6,7.4-15.9,17.4-15.9
			C1452.8,126.7,1454.7,126.8,1457,127.1z M1407.1,199.9c-2.1,1.3-3.2,2.6-3.2,3.9c0,2.8,4.7,4.3,14,4.3c4.6,0,7.9-0.3,10-0.9
			c2.1-0.6,3.1-1.7,3.1-3.4c0-1.1-0.5-1.9-1.5-2.2c-1-0.4-3.1-0.6-6.3-0.8C1413.8,200.5,1408.4,200.2,1407.1,199.9z M1423.4,167.2
			c2.4,0,4.3-0.8,5.6-2.5c1.4-1.7,2-3.6,2-5.7c0-4.2-2.1-6.2-6.2-6.2c-2.5,0-4.5,0.9-5.8,2.6c-1.3,1.7-2,3.8-2,6.1
			c0,1.8,0.6,3.3,1.8,4.3C1420.1,166.7,1421.6,167.2,1423.4,167.2z"/>
	</g>
</g>
</svg>
