<svg id="Layer_1" data-name="Layer 1" xmlns="http://www.w3.org/2000/svg" viewBox="0 0 350 350"><defs><style>.cls-1{fill:#134985;}.cls-2{fill:#f58946;}.cls-3{fill:#1068b2;}.cls-4{fill:#0e3267;}.cls-5{fill:#f05a28;}.cls-6{fill:#f26f21;}</style></defs><title>logo</title><path class="cls-1" d="M62.33,185.23h8.94L76.13,212H67.41L67,208.42H58.21L56.62,212H48.09Zm-1.45,17.62h5.53l-1.08-9.57Z"/><path class="cls-1" d="M81.62,192.5H88.7l-.59,3.12A9.57,9.57,0,0,1,95.38,192a7.1,7.1,0,0,1,4.6,1.37q1.71,1.37,1.71,4.56a14,14,0,0,1-.22,2.34L99.35,212H91.67l1.82-10.35,0-.59,0-.67c0-1.53-.73-2.3-2.18-2.3a3.3,3.3,0,0,0-2.38.85A6,6,0,0,0,87.7,202L86,212H78.21Z"/><path class="cls-1" d="M129,185.23,124.28,212h-6.94l.48-2.74h-.14a7.4,7.4,0,0,1-6.42,3.37,8.28,8.28,0,0,1-5.23-1.69q-2.19-1.69-2.19-5.67a28.46,28.46,0,0,1,.37-3.19,12.11,12.11,0,0,1,3.82-7.4,9.59,9.59,0,0,1,6.38-2.67,5.6,5.6,0,0,1,5.23,2.52l1.6-9.28Zm-13.17,12.69q-3.37,0-4.15,6c0,2,.87,3.06,2.63,3.06a3.44,3.44,0,0,0,3-1.92,7.47,7.47,0,0,0,1.15-3.89,4,4,0,0,0-.65-2.37,2.32,2.32,0,0,0-2-.91"/><path class="cls-1" d="M130.51,198.51q1.08-6.52,12.24-6.52,4.56,0,6.38,1.26A4.27,4.27,0,0,1,151,197a15.41,15.41,0,0,1-.22,2.38l-1.67,9.52-.22,1.3a2.33,2.33,0,0,0,.81,1.45l-.07.33h-8v-2.11a12.25,12.25,0,0,1-8,2.74,7.41,7.41,0,0,1-4.46-1.45,3.75,3.75,0,0,1-1.4-3.16v-.48l.14-.9a6,6,0,0,1,2.16-3.9,8.8,8.8,0,0,1,3.37-1.71l2-.37,2.82-.49a15.23,15.23,0,0,0,3.79-.7c.81-.35,1.22-.83,1.22-1.45,0-.92-.75-1.38-2.26-1.38a2.86,2.86,0,0,0-3,1.89Zm11.8,4.9a14.82,14.82,0,0,1-2.75.78l-1.37.3a6.62,6.62,0,0,0-1.34.52,2,2,0,0,0-1,1.59c0,.92.69,1.46,2.08,1.63a3.79,3.79,0,0,0,3-1.48,6.65,6.65,0,0,0,1.3-3.34"/><path class="cls-1" d="M155.88,192.5H163l-.52,2.9A10.31,10.31,0,0,1,165.6,193c.32-.17.55-.28.67-.33a10.52,10.52,0,0,1,1.24-.41,6.5,6.5,0,0,1,1.77-.22c3.09,0,5,1.18,5.63,3.56a9.76,9.76,0,0,1,7.42-3.56,7,7,0,0,1,4.64,1.29,5.36,5.36,0,0,1,1.52,4.27,19.56,19.56,0,0,1-.22,2.78l-2,11.65h-7.76l1.75-9.94a10.79,10.79,0,0,0,.22-1.93,2.15,2.15,0,0,0-.48-1.58,2.32,2.32,0,0,0-1.63-.46,3.28,3.28,0,0,0-2,.69c-.6.45-1.07,1.55-1.39,3.28l-1.7,9.94h-7.76l1.78-10.13.15-1.67c0-1.41-.66-2.11-2-2.11a3,3,0,0,0-2.19.89,7.12,7.12,0,0,0-1.3,3.08L160.15,212h-7.68Z"/><path class="cls-1" d="M192.39,198.51q1.06-6.52,12.24-6.52,4.56,0,6.38,1.26a4.26,4.26,0,0,1,1.81,3.75,15.41,15.41,0,0,1-.22,2.38l-1.67,9.52-.22,1.3a2.34,2.34,0,0,0,.82,1.45l-.08.33h-8v-2.11a12.25,12.25,0,0,1-8,2.74,7.4,7.4,0,0,1-4.45-1.45,3.73,3.73,0,0,1-1.41-3.16v-.48l.15-.9a6,6,0,0,1,2.15-3.9,8.77,8.77,0,0,1,3.38-1.71l2-.37,2.82-.49a15.22,15.22,0,0,0,3.78-.7c.82-.35,1.23-.83,1.23-1.45,0-.92-.76-1.38-2.27-1.38a2.87,2.87,0,0,0-3,1.89Zm11.79,4.9a14.67,14.67,0,0,1-2.74.78l-1.38.3a6.56,6.56,0,0,0-1.33.52,2,2,0,0,0-1,1.59c0,.92.7,1.46,2.08,1.63a3.78,3.78,0,0,0,3-1.48,6.65,6.65,0,0,0,1.3-3.34"/><path class="cls-1" d="M217.83,192.5h7.09l-.6,3.12a9.59,9.59,0,0,1,7.27-3.63,7.13,7.13,0,0,1,4.61,1.37q1.7,1.37,1.7,4.56a13,13,0,0,1-.22,2.34L235.56,212h-7.67l1.81-10.35,0-.59,0-.67c0-1.53-.73-2.3-2.19-2.3a3.3,3.3,0,0,0-2.38.85,6.05,6.05,0,0,0-1.29,3.12L222.17,212h-7.75Z"/><path class="cls-1" d="M81,282.84l2.68-15.45h32l-7,39.44H93.8l.19-6.94q-9.31,8.72-22.89,8.72t-21.35-7.82Q42.07,293,42.07,280.5l.1-4.45.69-3.86q3-16.81,14.37-27.61a39.55,39.55,0,0,1,13.28-8.36A46,46,0,0,1,87,233.4a46.29,46.29,0,0,1,8.32.64,29.41,29.41,0,0,1,7.23,2.42,22.2,22.2,0,0,1,10.11,8.83,26.6,26.6,0,0,1,3.57,14.07v.4H94q-1.08-8.92-10.5-8.92Q68,250.84,65.55,278q0,13.18,12.19,13.18a16,16,0,0,0,7.88-2.33,12.19,12.19,0,0,0,5.6-6Z"/><path class="cls-1" d="M136,235.18h34.19q9.31,0,14.86,2.28a17.65,17.65,0,0,1,8.92,6.29,18,18,0,0,1,3,10.65,34.05,34.05,0,0,1-.59,6q-4.77,24-33.7,24h-12l-3.86,22.3H123.42Zm20.52,16.65-3,15.85h10.11a11,11,0,0,0,7.48-2.72,8.72,8.72,0,0,0,3.12-6.89q0-6.24-10.79-6.24Z"/><path class="cls-1" d="M242.43,255.89q0-6-8.72-6-6.83,0-7.73,3.85a4.19,4.19,0,0,0,1.59,4,20.94,20.94,0,0,0,6,2.67l7.63,1.88q10,2.39,15.36,6.58A13.46,13.46,0,0,1,262,279.92l-.3,4.26q-2.39,12.85-13,18.64a50.58,50.58,0,0,1-24.53,5.79q-13.08,0-20.91-6.64a18.92,18.92,0,0,1-6.74-15l.1-2.48h22.5c0,2.77,1,4.74,3,5.9a13.27,13.27,0,0,0,6.65,1.73c5.68,0,9-1.61,10-4.85V286c0-1.39-.8-2.49-2.38-3.32a70.25,70.25,0,0,0-10.21-3.51q-11.3-2.67-17.34-6.68t-6-12.31l.29-2.77.3-2.38A23,23,0,0,1,209,244a29.61,29.61,0,0,1,12-7.81,48.63,48.63,0,0,1,17.14-2.82q11.79,0,19.52,5.33,7,4.92,7,17.16Z"/><polygon class="cls-2" points="267.09 41.63 235.16 157.12 260.72 152.78 267.09 41.63"/><polygon class="cls-3" points="218.66 120.05 230.68 143.98 263.68 30.24 218.66 120.05"/><polygon class="cls-4" points="218.66 120.05 218.66 120.05 230.68 143.98 170.42 144.68 218.66 120.05"/><polygon class="cls-1" points="218.66 120.05 170.42 144.68 215.41 89.47 263.68 30.24 218.66 120.05"/><polygon class="cls-5" points="260.72 152.78 278.7 209.59 235.16 157.12 260.72 152.78"/><polygon class="cls-6" points="273.88 139.76 278.7 209.59 260.72 152.78 267.09 41.63 273.88 139.76"/><polygon class="cls-5" points="274.17 217.14 308 275.29 289.23 230.94 274.17 217.14"/><polygon class="cls-6" points="289.23 230.94 308 275.29 270.91 50.2 289.23 230.94"/><polygon class="cls-4" points="117.73 169.53 206.27 158.76 150.75 157.03 117.73 169.53"/><polygon class="cls-1" points="252.91 39.31 117.73 169.53 150.75 157.03 252.91 39.31"/></svg>