<svg xmlns="http://www.w3.org/2000/svg" xmlns:xlink="http://www.w3.org/1999/xlink" viewBox="0 0 48 48"><defs><style>.cls-1{fill:#134985;}.cls-2{fill:none;}.cls-3{fill:url(#linear-gradient);}.cls-4{fill:url(#linear-gradient-2);}.cls-5{fill:url(#linear-gradient-3);}.cls-6{fill:url(#linear-gradient-4);}.cls-7{fill:url(#linear-gradient-5);}.cls-8{fill:url(#linear-gradient-6);}.cls-9{fill:url(#linear-gradient-7);}.cls-10{fill:url(#linear-gradient-8);}.cls-11{fill:url(#linear-gradient-9);}</style><linearGradient id="linear-gradient" x1="24.2" y1="37.17" x2="27.41" y2="39.65" gradientUnits="userSpaceOnUse"><stop offset="0" stop-opacity="0.6"/><stop offset="1" stop-color="#2c65a8" stop-opacity="0"/></linearGradient><linearGradient id="linear-gradient-2" x1="16.02" y1="33.63" x2="18.12" y2="37.01" xlink:href="#linear-gradient"/><linearGradient id="linear-gradient-3" x1="24.86" y1="36.31" x2="28.08" y2="38.79" xlink:href="#linear-gradient"/><linearGradient id="linear-gradient-4" x1="22.05" y1="29.87" x2="24.15" y2="33.25" xlink:href="#linear-gradient"/><linearGradient id="linear-gradient-5" x1="34.88" y1="25.37" x2="15.8" y2="23.73" xlink:href="#linear-gradient"/><linearGradient id="linear-gradient-6" x1="23.71" y1="26.42" x2="26.64" y2="25.41" xlink:href="#linear-gradient"/><linearGradient id="linear-gradient-7" x1="25.14" y1="27.94" x2="27.24" y2="31.32" xlink:href="#linear-gradient"/><linearGradient id="linear-gradient-8" x1="24.65" y1="32.83" x2="29.56" y2="31.6" xlink:href="#linear-gradient"/><linearGradient id="linear-gradient-9" x1="35.46" y1="18.57" x2="16.38" y2="16.94" xlink:href="#linear-gradient"/></defs><title>logo version-12</title><g id="single_logo" data-name="single logo"><path class="cls-1" d="M23.62,2,10.87,45.7l12.75-5.92L37.19,46ZM19.67,34.85l4.17-14.79,3.87,12Z"/><polygon class="cls-2" points="23.83 20.08 19.67 34.85 27.69 32.05 23.83 20.08"/><polygon class="cls-3" points="25.8 38.74 23.61 39.78 29.75 42.59 31.12 43.19 28.55 37.45 25.8 38.74"/><polygon class="cls-4" points="28.55 37.45 29.91 36.82 27.72 32.08 27.69 32.05 27.69 32.05 19.67 34.85 10.87 45.7 25.8 38.74 28.54 37.43 28.55 37.45"/><polygon class="cls-5" points="28.54 37.43 25.8 38.74 28.55 37.45 28.54 37.43"/><polygon class="cls-6" points="28.54 37.43 25.8 38.74 28.55 37.45 28.54 37.43"/><polygon class="cls-7" points="23.83 20.06 23.75 15.07 23.78 15.15 23.61 2.01 10.81 45.7 19.67 34.85 23.83 20.08 23.83 20.06"/><polygon class="cls-8" points="23.81 20.08 27.69 32.05 27.68 32.04 27.7 32.08 31.12 35.11 23.75 15.15 23.81 20.06 23.81 20.08"/><polygon class="cls-9" points="27.69 32.05 27.69 32.05 27.72 32.08 27.71 32.04 27.69 32.05"/><polygon class="cls-10" points="27.69 32.05 27.69 32.05 27.72 32.08 27.71 32.04 27.69 32.05"/><polygon class="cls-11" points="23.83 20.06 23.83 20.08 23.84 20.06 23.78 15.15 23.75 15.07 23.83 20.06"/></g></svg>